<svg width="421" height="110" viewBox="0 0 421 110" fill="none" xmlns="http://www.w3.org/2000/svg">
<path fill-rule="evenodd" clip-rule="evenodd" d="M13.4804 17.1476C10.2922 18.1168 8.22812 21.3761 8.22812 25.4587C8.22812 29.5412 10.7358 36.4753 13.9541 41.2015C14.5443 42.0546 15.0181 42.818 15.0181 42.8741C15.0181 42.9303 14.3677 42.9902 13.5706 42.9902C9.73577 42.9902 5.10009 44.6628 2.65255 46.9567C0.614817 48.8352 -0.15215 50.7175 0.024554 53.4192C0.438117 59.4701 6.31069 63.2309 12.9803 61.6742C15.458 61.1166 17.9393 60.0277 19.7665 58.7067C20.5636 58.1492 21.2403 57.6777 21.3005 57.6777C21.3305 57.6777 21.2102 59.1745 20.9771 60.9669C20.5335 64.7576 20.6839 69.162 21.3306 71.3361C22.4209 74.9472 24.9323 77.0652 28.1769 77.0652C30.241 77.0652 32.0118 76.3018 33.3427 74.7751C36.2339 71.5158 36.6474 67.1675 34.9067 58.6207L34.6999 57.6215L36.5309 58.5309C39.2153 59.8817 41.7831 60.4094 45.2645 60.2634C48.7159 60.1474 50.8138 59.3541 52.7012 57.4719C54.3253 55.8553 54.9457 54.3884 55.0923 51.8925C55.3292 47.4881 52.8478 43.1398 49.1032 41.4933C47.4226 40.7599 44.4976 40.3782 42.02 40.5541L40.0123 40.73L41.8132 38.6157C47.2121 32.2131 48.0994 23.9282 43.7908 19.7296C42.1365 18.113 40.8695 17.5854 38.625 17.5854C33.7262 17.6453 29.8312 21.9898 26.9099 30.6863C26.2896 32.5386 25.7595 33.7698 25.6993 33.4479C25.2557 30.7462 23.6916 25.2229 22.8645 23.4604C21.684 20.9345 19.4996 18.4685 17.819 17.7014C16.3152 17.054 14.5143 16.822 13.4804 17.1438V17.1476ZM16.4618 20.4967C17.5521 21.0842 18.9996 22.7307 19.8568 24.4334C21.2742 27.2549 22.8683 33.5115 23.3984 38.4436C23.7518 41.6468 24.609 42.6721 26.0827 41.7029C26.5828 41.3811 26.9663 40.6177 27.4099 39.1171C30.5981 27.8947 32.6321 23.4904 35.6135 21.436C37.9445 19.8493 39.892 19.8793 41.6628 21.5258C43.1667 22.9066 43.7569 24.4034 43.7569 26.8432C43.7569 31.1615 41.8959 34.8325 37.4106 39.2107C34.6059 41.9723 34.2525 42.7357 35.3729 43.7348C35.9632 44.2624 36.0797 44.2624 39.798 43.7348C44.2232 43.1174 46.024 43.2371 48.2685 44.3523C51.3364 45.8191 53.314 50.463 52.1635 53.4866C51.6635 54.8375 49.8326 56.484 48.1482 57.0977C44.0765 58.6244 37.6136 57.0677 34.072 53.7186C32.5682 52.3078 31.8576 52.102 31.1207 52.8654C30.7071 53.2571 30.835 54.7651 31.5042 57.3895C33.3352 64.5256 33.4517 68.7279 31.9779 71.4297C30.9741 73.282 29.7071 74.1314 27.9927 74.1314C26.9287 74.1314 26.5753 73.9556 25.6316 73.0163C25.0113 72.4288 24.3608 71.3998 24.1578 70.7561C23.5074 68.6419 23.451 64.0017 24.0413 59.4177C24.5413 55.3352 24.5413 55.0395 24.0713 54.336C23.7179 53.8084 23.3044 53.5727 22.7141 53.5727C21.887 53.5727 21.3569 53.8645 18.3754 56.0125C16.458 57.3933 14.0969 58.4223 11.796 58.8901C8.49129 59.5674 5.47981 58.4485 3.76916 55.8927C1.79158 53.0151 2.70519 49.7258 6.04001 47.6677C8.63794 46.0811 14.0368 45.082 17.1648 45.6133C20.0861 46.111 21.3569 45.4075 19.4657 44.2924C18.0484 43.4691 14.1534 36.0973 12.4427 31.0156C11.6457 28.6656 11.4088 27.4045 11.3787 25.8179C11.3486 21.4397 13.6232 19.0635 16.4543 20.5005L16.4618 20.4967Z" fill="#FFD6D6"/>
<path fill-rule="evenodd" clip-rule="evenodd" d="M25.6654 43.7011C23.8946 44.6703 22.951 48.1654 24.0413 49.6922C25.6053 51.9262 29.677 51.6305 31.0042 49.1346C31.6847 47.8436 31.6846 46.6087 30.944 45.4038C29.7935 43.5515 27.3723 42.7619 25.6616 43.7011H25.6654Z" fill="#FFD6D6"/>
<path fill-rule="evenodd" clip-rule="evenodd" d="M65.8337 66.9954C64.4764 67.6427 62.9425 69.5512 62.3522 71.2538C62.0289 72.2829 61.9086 73.4579 61.9988 75.3364C62.0289 76.7771 62.059 77.9521 62.059 77.9521C62.0289 77.9521 61.2319 77.6003 60.2882 77.1588C58.9009 76.5114 58.1038 76.3355 56.4533 76.3355C54.6524 76.3355 54.1825 76.4515 52.9418 77.2149C52.1447 77.7126 51.0807 78.6818 50.6108 79.3591C49.3701 81.1216 49.34 83.4716 50.5205 85.264C51.5244 86.7608 53.5621 88.1117 55.8329 88.7292C56.7465 88.9949 57.5135 89.3167 57.5135 89.4327C57.5135 89.5487 57.0699 89.9042 56.5699 90.2559C55.2126 91.0792 53.1749 93.2234 52.8215 94.1926C52.0244 96.2469 52.7049 98.9786 54.4156 100.741C55.3593 101.74 55.8893 102.032 57.0135 102.182C59.6114 102.564 62.356 101.478 64.8336 99.0984C65.5404 98.4211 66.1608 97.9234 66.1908 97.9533C66.251 98.0132 66.4578 98.9824 66.6345 100.097C67.0781 102.653 67.7849 104.034 69.3189 105.355C71.5897 107.264 74.4847 107.529 77.3458 106.059C82.1544 103.593 83.1319 97.7475 79.6467 92.3702C78.9963 91.371 78.4661 90.4617 78.4661 90.3158C78.4661 90.1698 78.9963 89.994 79.6467 89.8742C83.3349 89.2867 86.3764 87.1126 87.8803 84.0292C89.5346 80.6202 89.3541 77.8623 87.3502 75.864C84.7222 73.2483 80.4437 73.7797 76.5186 77.185L75.0147 78.5059L74.8381 75.5085C74.7478 73.862 74.4546 71.8975 74.1876 71.1603C73.6274 69.5736 72.0033 67.5492 70.7626 66.9318C69.6723 66.3443 67.0443 66.3742 65.8337 66.9916V66.9954ZM69.849 70.1088C70.646 70.7262 71.4431 72.7806 71.6799 74.8387C71.7965 76.0436 71.7702 78.7454 71.5897 81.2413C71.3528 84.7065 71.3528 85.6457 71.6799 86.0012C71.8867 86.2669 72.21 86.4727 72.3867 86.4727C72.5635 86.4727 73.8906 84.8861 75.3381 82.9477C78.1127 79.2468 79.97 77.6303 82.1243 77.0428C87.8803 75.4561 87.1998 83.9468 81.3573 86.4428C80.267 86.8843 75.8682 87.9396 75.0411 87.9396C74.9509 87.9396 74.8042 88.2352 74.6576 88.587C74.3643 89.4102 74.6275 89.9977 76.075 91.6704C78.5827 94.4919 79.6467 98.3687 78.6428 101.011C77.3721 104.3 73.244 105.415 70.9092 103.095C69.6685 101.86 69.255 100.217 69.285 96.6324C69.285 94.3123 69.1948 93.5788 68.8113 93.1672C67.9541 92.198 67.0706 92.5199 65.8299 94.1664C64.2659 96.2507 61.5815 98.7504 60.3107 99.248C58.7166 99.9254 56.8594 99.8056 56.0924 99.0123C55.2653 98.1591 54.7953 96.5725 55.0284 95.5172C55.2953 94.2524 57.6263 92.4038 60.9311 90.8172C62.6116 90.0239 63.999 89.3204 63.999 89.2605C63.999 89.2007 64.0892 88.9687 64.1757 88.7329C64.4727 87.9396 63.4688 87.3521 61.8446 87.3521C59.7505 87.3521 56.6225 86.6486 54.9381 85.7954C53.4343 85.062 52.1936 83.5614 52.1936 82.4762C52.1936 81.0093 54.6449 79.1271 56.5322 79.1271C57.8293 79.1271 60.7243 80.6838 62.935 82.5361C66.0028 85.1518 65.9765 85.1518 66.7999 84.7701C67.8639 84.2724 67.7436 83.1535 66.3262 80.216C65.3223 78.1317 65.0855 77.3084 64.9689 75.4C64.8524 73.4018 64.9088 72.934 65.5291 71.7889C66.563 69.8206 68.4805 69.0572 69.8377 70.1162L69.849 70.1088Z" fill="#FFD6D6"/>
<path fill-rule="evenodd" clip-rule="evenodd" d="M67.2473 86.1172C65.9502 86.7347 65.3299 87.8498 65.5931 88.9387C66.2999 91.8164 70.4017 91.966 71.5822 89.1745C72.0822 87.9995 71.6724 86.353 70.7852 85.8852C69.958 85.4436 68.394 85.5335 67.2436 86.121L67.2473 86.1172Z" fill="#FFD6D6"/>
<path fill-rule="evenodd" clip-rule="evenodd" d="M190.103 0.622791C187.704 1.98877 187.37 4.94313 189.037 9.64066C189.603 11.229 190.303 12.9444 190.603 13.4844C190.903 13.9927 191.67 15.7717 192.337 17.4235C192.97 19.0754 193.77 20.5685 194.036 20.7273C195.336 21.5215 196.103 20.7908 199.269 15.7081C200.969 12.9762 202.736 10.0258 203.202 9.10456C204.802 5.83256 203.902 2.85044 201.336 2.85044C200.036 2.85044 199.136 3.26343 197.636 4.66118L196.436 5.74124L195.87 3.89876C194.736 0.340859 192.637 -0.86628 190.103 0.626765V0.622791Z" fill="#FFD6D6"/>
<path fill-rule="evenodd" clip-rule="evenodd" d="M75.4602 3.42172C74.2868 3.92269 72.5267 5.89316 71.7771 7.49626C71.5163 8.13082 71.1578 8.63182 71.06 8.63182C70.9297 8.63182 70.5711 8.03063 70.2452 7.29588C69.5282 5.69279 67.54 3.7223 66.2688 3.42172C64.5088 2.95415 62.488 5.09162 62.0643 7.86364C61.7383 10.0345 62.6184 12.6061 65.4866 17.9456C66.8229 20.4505 68.5829 24.0533 69.4304 25.9903C71.5489 30.8998 71.5815 31 72.6571 31C74.2216 31 74.4172 30.5992 78.2632 19.7825C80.7403 12.8065 81.2944 10.2015 80.8707 7.76345C80.4469 5.3922 79.7299 4.08971 78.5565 3.45515C77.4158 2.85399 76.7639 2.85396 75.4602 3.42172Z" fill="#FFD6D6"/>
<path fill-rule="evenodd" clip-rule="evenodd" d="M169.338 74.8447C168.391 75.624 168.181 76.0461 168.041 77.5722C167.83 80.1698 168.391 82.1179 170.741 86.6271C171.864 88.8675 172.986 91.2703 173.197 92.0171C173.898 94.4523 175.511 94.6796 176.493 92.5041C182.07 80.3321 182 80.5269 182 78.4164C182 77.0851 181.825 76.663 180.983 75.8513C179.475 74.4875 178.072 74.6499 175.967 76.4682L175.02 77.2799L174.67 76.5007C173.512 73.9681 171.267 73.2537 169.338 74.8447Z" fill="#FFD6D6"/>
<path fill-rule="evenodd" clip-rule="evenodd" d="M362.644 5.06429C361.576 5.66728 361.296 6.04647 360.892 7.525C360.234 10.0466 360.449 12.0626 361.98 16.9113C362.696 19.3126 363.384 21.8738 363.462 22.6458C363.73 25.1658 365.279 25.6698 366.624 23.6979C374.229 12.6791 374.127 12.8588 374.493 10.7804C374.724 9.46932 374.625 9.02316 373.937 8.07758C372.688 6.47268 371.279 6.38895 368.89 7.8142L367.817 8.44917L367.607 7.62086C366.907 4.92572 364.82 3.83242 362.644 5.06429Z" fill="#FFD6D6"/>
<path fill-rule="evenodd" clip-rule="evenodd" d="M234.253 4.49189C231.689 6.06494 231.145 8.89904 233.089 10.5246C234.098 11.3752 235.082 11.5821 236.326 11.1683C238.451 10.4721 239.306 7.55916 237.801 6.09121C237.411 5.70369 236.92 5.31947 236.712 5.24066C236.402 5.13885 236.375 5.03378 236.659 4.72509C237.332 3.9008 235.468 3.72015 234.25 4.49189H234.253ZM235.781 6.99106C236.299 7.73982 236.247 8.35718 235.626 8.71842C234.719 9.28656 234.045 7.96969 234.643 6.81043C235.006 6.16676 235.263 6.19305 235.781 6.99106Z" fill="#FFD6D6"/>
<path fill-rule="evenodd" clip-rule="evenodd" d="M249.614 17.5885C249.38 17.8447 249.07 18.8003 248.915 19.7297C248.525 21.9727 247.826 24.3438 246.532 27.7986C245.575 30.3765 245.288 30.8658 243.84 32.3601C241.147 35.1449 241.068 35.8411 243.269 37.4897C245.341 39.0102 246.506 40.3501 248.525 43.5224C251.479 48.189 252.489 48.2383 254.043 43.6768C254.924 41.1514 255.597 39.8115 258.032 35.8674C259.507 33.4963 259.352 32.7738 257.178 31.4602C254.224 29.6803 253.37 28.0317 252.333 22.1796C251.997 20.1961 251.558 18.288 251.4 17.9268C250.984 17.1288 250.156 16.9744 249.611 17.5918L249.614 17.5885ZM251.842 29.4471C252.386 30.5571 255.079 33.3912 255.571 33.3912C255.673 33.3912 255.907 33.4931 256.115 33.6244C256.399 33.805 256.168 34.3206 255 36.048C253.756 37.9035 252.617 40.0939 251.581 42.6456C251.347 43.2137 251.245 43.1612 250.208 41.3582C249.509 40.1727 248.215 38.5997 246.79 37.2072L244.509 34.9905L245.625 34.0612C246.895 33.03 248.113 30.7607 249.433 26.9972L250.261 24.5736L250.726 26.3766C250.984 27.3552 251.479 28.7477 251.842 29.4439V29.4471Z" fill="#FFD6D6"/>
<path fill-rule="evenodd" clip-rule="evenodd" d="M225.631 34.7311C225.502 34.9118 225.192 36.5111 224.958 38.2877C223.793 47.0528 223.248 49.2169 221.074 53.8047C219.985 56.1232 219.83 56.3301 219.13 56.3301C218.196 56.3301 217.497 57.1018 217.602 58.0312C217.655 58.6256 217.992 58.9343 219.236 59.6043C220.09 60.0673 221.229 60.9442 221.773 61.5386C222.964 62.8259 224.908 66.6945 226.436 70.7404C227.627 73.9095 228.38 74.8388 229.442 74.5039C230.218 74.2707 230.426 73.7814 231.125 70.2248C232.29 64.3989 233.118 62.7241 236.616 59.4762C237.834 58.3169 238.791 57.2069 238.791 56.9245C238.791 56.1265 238.118 55.4303 236.28 54.3203C234.052 53.0067 232.6 51.5617 231.59 49.68C230.554 47.7194 229.957 45.7096 228.716 39.9363C228.119 37.2828 227.525 34.961 227.37 34.7804C227.007 34.3436 225.997 34.3174 225.634 34.7279L225.631 34.7311ZM227.805 46.1497C228.97 50.8425 230.706 53.6011 233.712 55.6109C234.567 56.2053 235.346 56.7209 235.395 56.7702C235.474 56.8227 234.748 57.647 233.814 58.5993C232.881 59.5517 231.742 60.8949 231.303 61.6141C230.577 62.7471 229.284 66.3562 228.815 68.5729C228.66 69.2954 228.581 69.2166 227.805 67.2856C226.017 62.9277 224.152 59.9392 222.39 58.5993L221.275 57.7488L222.027 56.7176C222.961 55.4303 224.591 52.2317 225.162 50.5831C225.601 49.2958 226.198 46.0708 226.509 43.1842L226.69 41.5094L226.924 42.5405C227.053 43.1087 227.469 44.731 227.805 46.1497Z" fill="#FFD6D6"/>
<path fill-rule="evenodd" clip-rule="evenodd" d="M207.445 39.447C205.346 40.3993 204 42.4617 204 44.7309C204 46.2777 204.284 47.0495 205.346 48.1595C206.33 49.2432 207.237 49.6274 208.739 49.6274C210.709 49.6274 212.002 48.7768 212.986 46.8688C213.867 45.1152 213.269 41.7129 211.976 41.2236C211.768 41.1218 211.586 40.9149 211.586 40.7606C211.586 40.1662 210.342 39.2663 209.333 39.1612C208.762 39.1087 207.96 39.2138 207.442 39.4437L207.445 39.447ZM210.554 42.3861C211.616 44.6817 210.709 47.0527 208.791 47.0527C207.237 47.0527 206.099 45.2991 206.666 43.8048C207.158 42.5405 208.659 41.2006 209.673 41.1481C209.828 41.1218 210.217 41.6899 210.554 42.3861Z" fill="#FFD6D6"/>
<path fill-rule="evenodd" clip-rule="evenodd" d="M243.503 79.0424C241.041 80.6154 241.015 84.7664 243.45 86.415C246.041 88.1949 249.72 85.6432 249.304 82.3921C249.07 80.7435 248.552 80.1228 246.687 79.246C244.744 78.3691 244.615 78.3428 243.503 79.0391V79.0424ZM245.912 81.1047C247.001 82.0571 247.156 83.3214 246.301 84.172C245.655 84.8157 245.212 84.8157 244.668 84.2245C243.968 83.4528 243.866 82.4216 244.358 81.3116C244.618 80.7698 244.849 80.3067 244.902 80.3067C244.955 80.3067 245.394 80.6679 245.912 81.1047Z" fill="#FFD6D6"/>
<path fill-rule="evenodd" clip-rule="evenodd" d="M295.748 15.2283C295.65 15.3902 295.429 17.3124 295.233 19.5626C295.041 21.8127 294.751 24.0919 294.624 24.615C294.306 25.7235 293.631 25.985 288.144 27.1226C286.285 27.4796 284.585 27.9363 284.393 28.0982C283.85 28.5548 283.878 29.8252 284.426 30.2819C284.683 30.5102 286.832 31.0956 289.174 31.5855L293.439 32.4988L293.407 33.9311C293.407 34.7116 293.28 37.0614 293.117 39.1455C292.859 42.8611 292.892 42.9566 293.566 43.351C294.722 43.9696 295.589 43.0895 298.122 38.7884L300.398 34.9109L301.423 35.4008C301.967 35.6955 303.156 36.476 304.022 37.161C306.396 38.9213 306.972 39.1828 307.679 38.8217C309.088 38.0412 308.802 37.0614 305.914 32.86C304.953 31.49 304.181 30.2196 304.181 30.0245C304.181 29.7962 305.113 28.4594 306.265 27.0271C308.349 24.4199 308.672 23.6062 307.965 22.888C307.421 22.3358 306.265 22.3981 303.601 23.1495C300.075 24.1583 300.202 24.1916 299.176 21.0945C297.476 15.8137 297.125 15 296.483 15C296.165 15 295.809 15.0996 295.744 15.2283H295.748Z" fill="#FFD6D6"/>
<path fill-rule="evenodd" clip-rule="evenodd" d="M329.073 29.4391C328.656 29.7671 328.431 30.8714 328.014 34.7822L327.5 39.7018L325.06 40.42C321.502 41.4288 321.179 41.5949 321.179 42.475C321.179 43.5503 321.755 44.007 323.201 44.007C323.875 44.007 325.028 44.1689 325.767 44.364L327.116 44.6878V54.9214H328.047C328.815 54.9214 329.007 54.7263 329.49 53.4559C330.229 51.567 332.954 47.2659 333.465 47.2659C333.69 47.2659 334.907 47.8513 336.19 48.5695C338.883 50.0682 339.3 50.1347 339.815 49.1881C340.105 48.6359 340.072 48.3412 339.59 47.7558C339.239 47.3324 338.274 46.0952 337.441 44.9867L335.868 42.9981L336.668 41.7942C337.085 41.1424 337.984 39.9384 338.626 39.187C339.843 37.6883 340.133 36.3847 339.3 36.0567C339.01 35.9571 337.698 36.2519 336.317 36.6753C334.969 37.132 333.751 37.489 333.624 37.489C333.526 37.489 333.273 36.7708 333.081 35.8907C332.566 33.5118 331.189 29.8958 330.58 29.4059C329.906 28.916 329.78 28.916 329.073 29.4391Z" fill="#FFD6D6"/>
<path fill-rule="evenodd" clip-rule="evenodd" d="M303.928 63.2992C303.67 63.6563 302.902 69.2609 302.902 70.8925C302.902 71.4778 300.496 72.2625 296.712 72.8146C293.439 73.3045 292.638 73.6615 292.638 74.6704C292.638 75.5173 293.345 75.7456 298.22 76.5261C300.496 76.9164 302.388 77.2776 302.453 77.3066C302.486 77.373 302.678 79.3616 302.837 81.7073C302.996 84.3809 303.254 86.2034 303.511 86.4982C304.41 87.6066 305.084 86.8884 305.628 84.248C306.236 81.3793 307.037 79.1956 307.552 79.1956C307.936 79.1956 308.386 79.4903 312.043 82.0643C314.032 83.4675 314.993 83.7249 315.667 83.0399C316.341 82.3549 316.084 81.7696 314.257 79.7477C313.264 78.6725 311.949 77.0119 311.307 76.0321L310.183 74.305L310.923 73.4913C311.34 73.0347 312.365 72.2209 313.199 71.6356C314.964 70.4316 315.221 69.9749 314.772 69.0616C314.323 68.2479 313.84 68.2811 311.18 69.2567C307.875 70.4607 307.908 70.4939 306.947 67.3346C306.498 65.8359 306.114 64.4036 306.114 64.142C306.114 63.0668 304.606 62.4814 303.932 63.2951L303.928 63.2992Z" fill="#FFD6D6"/>
<path fill-rule="evenodd" clip-rule="evenodd" d="M139.967 17.3084C139.761 17.514 139.659 18.6924 139.659 20.8958C139.659 22.6878 139.58 24.1763 139.505 24.1763C139.403 24.1763 138.681 23.7911 137.88 23.3048C136.026 22.1786 134.48 21.7151 133.836 22.0742C133.4 22.3288 133.449 22.4593 134.634 23.5333C135.356 24.1731 136.541 25.1229 137.286 25.6354C138.008 26.1479 138.625 26.6604 138.625 26.7877C138.625 26.915 138.057 27.6854 137.361 28.4786C134.683 31.6057 133.367 33.9103 134.322 33.9103C134.992 33.9103 137.105 32.2945 138.418 30.8092C139.14 29.9638 139.784 29.3501 139.836 29.3991C139.889 29.4513 140.043 30.5775 140.171 31.8832C140.479 34.6774 140.788 35.624 141.536 35.8557C142.567 36.1887 142.8 35.3694 142.619 32.2683L142.439 29.4742L143.624 30.3457C146.896 32.7547 147.204 32.9081 148.133 32.8298C150.066 32.6764 149.292 31.4197 145.609 28.6777C144.27 27.6788 143.033 26.7812 142.879 26.68C142.751 26.5788 143.601 25.5016 144.887 24.2188C146.535 22.5279 147.129 21.7575 147.129 21.2712C147.129 19.812 145.892 20.0666 143.83 21.9893C142.98 22.7564 142.232 23.3994 142.183 23.3994C142.104 23.3994 141.976 22.2472 141.874 20.8631C141.796 19.453 141.618 18.02 141.461 17.6609C141.205 16.9428 140.483 16.7894 139.967 17.3018V17.3084Z" fill="#FFD6D6"/>
<path fill-rule="evenodd" clip-rule="evenodd" d="M109.001 33.7601C108.767 34.0669 108.718 35.3759 108.794 39.2701C108.846 42.7563 108.794 44.3166 108.613 44.1893C106.345 42.3973 102.945 40.0633 102.689 40.0633C102.046 40.0633 101.786 40.8827 102.2 41.6269C102.535 42.2928 104.596 44.1632 106.864 45.9324L107.973 46.7779L105.525 49.4937C103.103 52.1834 102.614 53.0028 102.922 53.7731C103.257 54.6447 104.209 54.1322 106.582 51.8015L109.004 49.4447L109.03 50.7243C109.109 56.5934 109.624 59.0253 110.809 59.0253C111.659 59.0253 111.787 58.1537 111.633 53.5414L111.505 49.2097L112.896 50.2347C114.803 51.671 116.992 52.7188 117.327 52.3858C117.843 51.8733 116.323 49.9246 114.055 48.2337C112.844 47.336 111.866 46.4906 111.84 46.3894C111.84 46.2621 113.103 44.852 114.672 43.2623C116.218 41.6726 117.557 40.0601 117.636 39.7271C117.892 38.7283 117.688 38.1374 117.042 38.0624C116.579 37.984 115.857 38.5487 113.924 40.4453L111.4 42.9065L111.219 38.9339C110.986 34.142 110.858 33.5545 109.982 33.45C109.647 33.3978 109.211 33.5512 109.004 33.7568L109.001 33.7601Z" fill="#FFD6D6"/>
<path fill-rule="evenodd" clip-rule="evenodd" d="M163.024 42.0088C162.922 42.11 162.768 42.727 162.689 43.3929L162.535 44.6235L161.452 44.0098C160.215 43.2917 159.804 43.2427 159.571 43.8042C159.47 44.0588 159.854 44.6235 160.655 45.4428L161.892 46.6995L160.963 47.8518C160.011 48.978 159.752 49.8005 160.32 49.8005C160.474 49.8005 161.117 49.5198 161.738 49.1608L162.847 48.4949V49.2619C162.847 50.3881 163.103 50.8255 163.75 50.8255C164.344 50.8255 164.652 50.3914 164.652 49.5198C164.652 49.0857 164.731 49.0857 165.811 49.6471C167.022 50.313 168 50.2608 168 49.5688C168 49.337 167.357 48.5699 166.556 47.8779L165.112 46.5983L166.425 45.2926C167.147 44.5745 167.737 43.7813 167.737 43.5495C167.737 42.9098 166.654 43.0371 165.522 43.8564L164.518 44.6006L164.262 43.2949C164.029 42.0643 163.513 41.5518 163.024 42.0154V42.0088Z" fill="#FFD6D6"/>
<path fill-rule="evenodd" clip-rule="evenodd" d="M139.606 57.1516C139.373 57.4323 139.245 58.7674 139.193 61.764C139.14 64.0457 139.065 65.9389 138.986 65.9389C138.933 65.9389 138.392 65.6321 137.801 65.273C136.049 64.1697 134.168 63.3765 133.292 63.3765C132.829 63.3765 132.441 63.4777 132.441 63.6082C132.441 64.0195 134.089 65.4787 136.511 67.1695C137.798 68.0933 138.881 68.9387 138.881 69.0399C138.881 69.1411 137.722 70.4501 136.304 71.9614C134.526 73.8318 133.728 74.8568 133.728 75.2909C133.728 76.8284 135.067 76.3943 137.568 74.0114L139.577 72.0887L139.885 74.5728C140.479 79.492 141.07 81.3102 142.025 81.3102C142.928 81.3102 143.056 79.6715 142.514 75.2648C142.232 73.0354 142.025 71.1911 142.051 71.1388C142.104 71.1127 144.165 72.6241 146.148 74.1876C147.976 75.6239 149.367 75.3138 148.672 73.649C148.415 72.9831 145.373 70.3946 143.443 69.1379L142.747 68.7037L144.628 66.6016C145.685 65.4754 146.742 64.2187 146.971 63.8335C147.565 62.9097 147.434 61.7313 146.715 61.6301C146.302 61.5779 145.606 62.1687 143.958 63.8857L141.769 66.2425L141.615 64.6267C141.536 63.729 141.408 62.0643 141.333 60.9381C141.077 57.4519 140.456 56.1201 139.606 57.1451V57.1516Z" fill="#FFD6D6"/>
<path fill-rule="evenodd" clip-rule="evenodd" d="M110.569 81.6725C110.415 82.3123 110.287 83.2361 110.287 83.7486V84.6723L109.155 83.853C107.067 82.3678 106.45 83.5984 108.331 85.4688L109.463 86.595L108.587 87.7473C107.041 89.7711 107.684 91.129 109.49 89.6177L110.287 88.9518V89.9767C110.287 90.5904 110.468 91.2335 110.75 91.5664C111.163 92.0528 111.318 92.105 111.78 91.8471C112.243 91.6154 112.348 91.3085 112.348 90.3619V89.2096L113.018 89.6209C113.379 89.8755 113.92 90.0322 114.229 89.98C115.233 89.8527 115.053 89.0334 113.766 87.8517C112.453 86.6211 112.427 86.7255 113.947 84.829C115.079 83.3699 115.26 82.3449 114.334 82.3449C113.999 82.3449 113.405 82.6779 112.995 83.112C112.066 84.0587 111.836 84.0848 111.836 83.1643C111.836 82.2438 111.347 80.5496 111.088 80.5496C110.96 80.5496 110.727 81.0621 110.573 81.6758L110.569 81.6725Z" fill="#FFD6D6"/>
<path fill-rule="evenodd" clip-rule="evenodd" d="M420.87 42.9657C420.02 40.1358 417.159 38.3036 413.575 38.3036C409.992 38.3036 403.905 40.5295 399.757 43.3862C399.008 43.9101 398.338 44.3307 398.288 44.3307C398.239 44.3307 398.186 43.7533 398.186 43.0458C398.186 39.6419 396.718 35.527 394.705 33.3545C393.056 31.5457 391.404 30.8649 389.032 31.0218C383.721 31.3889 380.42 36.6016 381.786 42.5219C382.275 44.7211 383.231 46.9237 384.391 48.5456C384.88 49.2531 385.294 49.8538 385.294 49.9072C385.294 49.9339 383.98 49.8271 382.407 49.6202C379.079 49.2264 375.213 49.3599 373.305 49.9339C370.135 50.9017 368.276 53.1309 368.276 56.011C368.276 57.8431 368.946 59.4149 370.286 60.5963C373.147 63.1626 376.964 63.5297 384.466 61.9846L385.343 61.801L384.545 63.4263C383.359 65.8091 382.896 68.0884 383.024 71.1786C383.126 74.2422 383.822 76.1044 385.475 77.7797C386.894 79.2214 388.181 79.772 390.372 79.9022C394.238 80.1124 398.055 77.9099 399.5 74.586C400.144 73.0942 400.479 70.4978 400.325 68.2986L400.17 66.5165L402.026 68.1151C407.646 72.9074 414.919 73.6949 418.604 69.8705C420.023 68.4021 420.486 67.2775 420.486 65.2851C420.434 60.9367 416.62 57.4793 408.986 54.8863C407.361 54.3357 406.28 53.8651 406.562 53.8117C408.934 53.4179 413.782 52.0296 415.329 51.2955C417.546 50.2476 419.711 48.3086 420.384 46.8169C420.953 45.482 421.156 43.8835 420.874 42.9657H420.87ZM417.931 45.6121C417.415 46.5799 415.97 47.8648 414.475 48.6257C411.999 49.8838 406.507 51.2988 402.177 51.7694C399.366 52.0831 398.466 52.8439 399.316 54.1521C399.599 54.596 400.269 54.9364 401.586 55.3302C411.437 58.1601 415.303 59.9656 417.106 62.612C418.499 64.6811 418.473 66.4098 417.027 67.9816C415.815 69.3165 414.501 69.8404 412.36 69.8404C408.569 69.8404 405.347 68.1885 401.504 64.2072C399.08 61.7176 398.41 61.4039 397.533 62.3984C397.07 62.9224 397.07 63.0258 397.533 66.3263C398.075 70.2543 397.97 71.8528 396.991 73.8451C395.703 76.5683 391.627 78.3236 388.973 77.3024C387.787 76.8586 386.342 75.2334 385.803 73.7383C384.463 70.1241 385.829 64.3874 388.769 61.2437C390.008 59.9088 390.188 59.2781 389.518 58.624C389.174 58.2569 387.851 58.3704 385.547 58.9644C379.283 60.5896 375.594 60.6931 373.223 59.3849C371.597 58.4939 370.851 57.3692 370.851 55.8474C370.851 54.903 371.006 54.5893 371.83 53.7516C372.346 53.201 373.249 52.6237 373.814 52.4434C375.67 51.8661 379.743 51.8161 383.767 52.34C387.35 52.7839 387.61 52.7838 388.227 52.3667C388.69 52.053 388.897 51.6859 388.897 51.162C388.897 50.4278 388.641 49.9572 386.756 47.3108C385.544 45.6088 384.64 43.513 384.23 41.4706C383.635 38.5372 384.617 35.8641 386.861 34.3457C389.387 32.5903 392.274 33.4012 394.081 36.3614C395.473 38.6674 396.35 43.4596 395.884 46.2362C395.447 48.8292 396.065 49.9572 397.043 48.2786C397.766 47.0205 404.237 43.5631 408.697 42.0447C410.76 41.3372 411.867 41.1269 413.26 41.1002C417.103 41.0735 419.189 43.0925 417.927 45.6055L417.931 45.6121Z" fill="#FFD6D6"/>
<path fill-rule="evenodd" clip-rule="evenodd" d="M397.562 53.7817C396.712 52.2098 393.644 51.3722 392.304 52.34C390.343 53.7283 390.602 57.3425 392.793 58.5205C393.926 59.1246 395.01 59.1246 396.068 58.4671C397.694 57.4459 398.387 55.2968 397.562 53.7783V53.7817Z" fill="#FFD6D6"/>
<path fill-rule="evenodd" clip-rule="evenodd" d="M377.115 89.4366C376.547 88.2319 374.872 86.8703 373.377 86.3464C372.474 86.0594 371.443 85.9526 369.794 86.0326C368.529 86.0593 367.498 86.0861 367.498 86.0861C367.498 86.0594 367.806 85.3519 368.194 84.5142C368.762 83.2828 368.917 82.5753 368.917 81.1102C368.917 79.5117 368.815 79.0946 368.145 77.9933C367.708 77.2858 366.857 76.3413 366.263 75.9242C364.715 74.8229 362.653 74.7962 361.079 75.8441C359.765 76.7351 358.58 78.5439 358.038 80.5596C357.805 81.3705 357.522 82.0514 357.42 82.0514C357.318 82.0514 357.006 81.6576 356.698 81.2137C355.975 80.009 354.093 78.2002 353.242 77.8865C351.439 77.179 349.041 77.783 347.494 79.3015C346.617 80.1391 346.361 80.6096 346.229 81.6075C345.894 83.9135 346.847 86.3497 348.936 88.5489C349.53 89.1763 349.967 89.727 349.941 89.7537C349.888 89.8071 349.038 89.9906 348.059 90.1475C345.815 90.5413 344.603 91.1686 343.444 92.5302C341.769 94.5459 341.535 97.1156 342.826 99.6552C344.991 103.924 350.122 104.791 354.842 101.698C355.719 101.12 356.517 100.65 356.645 100.65C356.773 100.65 356.928 101.12 357.033 101.698C357.548 104.971 359.457 107.671 362.163 109.006C365.156 110.474 367.576 110.314 369.33 108.536C371.626 106.203 371.16 102.405 368.171 98.921L367.011 97.5861L369.643 97.4293C371.088 97.3492 372.812 97.0889 373.459 96.852C374.852 96.3547 376.629 94.913 377.171 93.8117C377.687 92.8439 377.66 90.5112 377.118 89.4366H377.115ZM374.382 93.0008C373.84 93.7083 372.037 94.4158 370.23 94.626C369.173 94.7295 366.801 94.7061 364.61 94.5459C361.569 94.3357 360.744 94.3357 360.432 94.626C360.199 94.8096 360.018 95.0966 360.018 95.2534C360.018 95.4103 361.411 96.5883 363.113 97.8731C366.361 100.336 367.78 101.985 368.296 103.897C369.689 109.006 362.236 108.402 360.045 103.216C359.657 102.248 358.731 98.3437 358.731 97.6095C358.731 97.5294 358.471 97.3993 358.163 97.2691C357.44 97.0088 356.924 97.2424 355.456 98.5272C352.979 100.753 349.576 101.698 347.257 100.807C344.37 99.6786 343.391 96.0143 345.428 93.9419C346.512 92.8406 347.954 92.4735 351.1 92.5002C353.137 92.5002 353.781 92.4201 354.142 92.0797C354.993 91.3188 354.71 90.5346 353.265 89.4333C351.436 88.045 349.241 85.6622 348.804 84.5342C348.21 83.1192 348.315 81.4707 349.011 80.7899C349.76 80.0557 351.153 79.6385 352.079 79.8454C353.19 80.0824 354.812 82.1515 356.205 85.0849C356.901 86.5766 357.519 87.8081 357.571 87.8081C357.624 87.8081 357.828 87.8882 358.034 87.9649C358.731 88.2286 359.247 87.3375 359.247 85.8958C359.247 84.037 359.864 81.2604 360.613 79.7653C361.257 78.4304 362.574 77.3292 363.526 77.3292C364.814 77.3292 366.466 79.505 366.466 81.1803C366.466 82.3316 365.1 84.9013 363.474 86.8636C361.178 89.5868 361.178 89.5634 361.513 90.2943C361.95 91.2387 362.932 91.1319 365.51 89.8738C367.34 88.9828 368.063 88.7725 369.738 88.6691C371.492 88.5656 371.902 88.6157 372.907 89.1663C374.635 90.084 375.305 91.786 374.376 92.9908L374.382 93.0008Z" fill="#FFD6D6"/>
<path fill-rule="evenodd" clip-rule="evenodd" d="M360.33 90.6914C359.788 89.5401 358.81 88.9895 357.854 89.2231C355.328 89.8505 355.196 93.4914 357.647 94.5393C358.678 94.9831 360.124 94.6194 360.534 93.8318C360.922 93.0976 360.843 91.7093 360.327 90.6881L360.33 90.6914Z" fill="#FFD6D6"/>
</svg>
